<svg width="1065" height="589" viewBox="0 0 1065 589" fill="none" xmlns="http://www.w3.org/2000/svg">
<path fill-rule="evenodd" clip-rule="evenodd" d="M525.88 1.09656C633.052 -8.36103 716.367 92.6151 792.426 168.709C858.276 234.59 887.983 320.99 929.146 404.549C979.031 505.816 1091.89 600.799 1058.38 708.598C1024.93 816.202 881.241 836.018 779.786 885.05C697.803 924.671 616.615 958.315 525.88 965.949C427.43 974.232 309.718 999.458 238.913 930.554C167.729 861.282 232.59 734.968 194.332 643.305C149.977 537.032 -22.1723 478.075 3.17695 365.742C27.7185 256.988 200.017 276.706 291.454 212.918C379.996 151.15 418.34 10.5867 525.88 1.09656Z" fill="white"/>
</svg>
