<svg width="627" height="591" viewBox="0 0 627 591" fill="none" xmlns="http://www.w3.org/2000/svg">
<path fill-rule="evenodd" clip-rule="evenodd" d="M377.117 -52.8838C447.043 -68.0194 527.662 -62.8733 584.705 -22.5047C641.352 17.5844 657.465 88.9355 669.436 153.989C680.008 211.44 659.257 266.026 648.364 323.426C635.191 392.845 651.477 473.417 599.106 524.595C544.487 577.969 455.793 598.649 377.117 588.494C302.583 578.873 254.326 516.548 195.986 472.561C141.649 431.592 79.2236 398.96 48.4524 340.689C14.5498 276.487 -22.0531 195.252 16.9937 133.603C56.6365 71.0137 161.424 89.7357 229.841 54.3065C285.712 25.3741 314.774 -39.3896 377.117 -52.8838Z" fill="white"/>
</svg>
