<svg width="51" height="42" viewBox="0 0 51 42" fill="none" xmlns="http://www.w3.org/2000/svg">
<path fill-rule="evenodd" clip-rule="evenodd" d="M10.9558 0.634277C8.10256 0.634277 5.99286 3.18129 6.08866 5.94074C6.17821 8.59609 6.06159 12.0311 5.21395 14.833C4.36008 17.6413 2.92306 19.4214 0.573853 19.6509V22.2319C2.92306 22.4592 4.36216 24.2393 5.21187 27.0497C6.06159 29.8517 6.17821 33.2866 6.08658 35.9399C5.99286 38.7014 8.10256 41.2485 10.9558 41.2485H40.1792C43.0325 41.2485 45.1422 38.7014 45.0464 35.9399C44.9568 33.2866 45.0734 29.8517 45.9211 27.0497C46.7729 24.2393 48.2078 22.4613 50.557 22.2319V19.6509C48.2078 19.4214 46.7729 17.6413 45.9211 14.833C45.0734 12.0289 44.9568 8.59397 45.0464 5.94074C45.1422 3.17917 43.0304 0.634277 40.1792 0.634277H10.9558ZM34.4583 25.635C34.4583 29.4374 31.6779 31.7423 27.0649 31.7423H19.2113C18.9865 31.7423 18.7709 31.6512 18.612 31.4891C18.453 31.3269 18.3637 31.107 18.3637 30.8777V11.0029C18.3642 10.774 18.4538 10.5546 18.6127 10.3929C18.7716 10.2312 18.9869 10.1404 19.2113 10.1404H27.0212C30.8678 10.1404 33.394 12.2647 33.394 15.5298C33.394 17.8197 31.6946 19.8697 29.5308 20.2308V20.3498C32.4777 20.679 34.4603 22.7608 34.4603 25.635H34.4583ZM26.211 12.8786H21.7334V19.3322H25.505C28.4207 19.3322 30.0285 18.1341 30.0285 15.9928C30.0285 13.9875 28.6456 12.8786 26.211 12.8786ZM21.7334 21.892V29.002H26.3777C29.412 29.002 31.0219 27.7593 31.0219 25.4247C31.0219 23.088 29.3683 21.892 26.1819 21.892H21.7334Z" fill="white"/>
</svg>
