<svg width="42" height="43" viewBox="0 0 42 43" fill="none" xmlns="http://www.w3.org/2000/svg">
<path d="M14.7042 9.57376C15.7499 9.75677 15.4591 11.252 14.4134 11.0689C6.11898 9.60698 0.307801 12.7159 4.70716 20.4139C5.23295 21.2881 3.83808 22.0426 3.31238 21.1683C-1.92587 12.4653 4.86656 7.80697 14.7042 9.57376ZM35.6229 24.3354C43.0375 15.7363 39.7722 9.34136 30.8571 9.23677C29.7983 9.22365 29.7788 10.7439 30.8376 10.757C38.7289 10.725 40.6064 16.2616 34.3945 23.3559C33.7099 24.1454 34.9638 25.0856 35.6229 24.3354ZM27.8238 37.823C28.3656 36.9698 27.0164 36.1745 26.4483 37.0373C21.9624 43.7696 16.4793 41.6955 13.1608 33.5774C12.802 32.6103 11.2869 33.1159 11.6457 34.083C14.5815 42.5871 22.367 46.3337 27.8238 37.823ZM22.9101 22.6796C22.9101 21.0393 21.025 20.0085 19.5251 20.8287C18.025 21.6488 18.025 23.7104 19.5251 24.5305C21.025 25.3507 22.9101 24.3199 22.9101 22.6796ZM3.20288 29.5899C3.46426 22.8322 13.8434 14.2125 26.0831 11.2465C27.1341 11.0298 26.7936 9.54414 25.7425 9.76087C14.4373 12.1347 1.02543 21.6661 1.58919 30.0078C-0.370387 31.1294 -0.349975 33.8517 1.6493 34.9409C3.66864 36.0411 6.20633 34.6585 6.20633 32.4584C6.20633 30.8046 4.77255 29.6127 3.20288 29.5899ZM36.4419 34.8588C37.8849 35.7493 39.9721 35.3415 40.8144 33.7432C41.8513 31.7759 40.2336 29.4638 37.9096 29.5914C35.7277 29.7113 34.4431 31.8987 35.3594 33.6881C28.31 36.5968 15.2158 31.7298 7.51704 23.9932C6.81247 23.256 5.62329 24.2782 6.32777 25.0155C13.6299 32.6734 28.4672 38.8657 36.4419 34.8588ZM23.6903 3.49827C23.691 1.61729 21.7095 0.158532 19.7032 0.777294C17.4895 1.4602 16.8908 4.16519 18.6281 5.63478C20.0899 6.87099 22.2907 6.45952 23.2363 5.01626C28.7142 8.45091 32.1134 20.1889 28.4914 32.6122C28.1781 33.5738 29.7129 34.0236 30.0262 33.0619C33.3174 22.9792 31.537 8.04797 23.6903 3.49827Z" fill="white"/>
</svg>
