<svg width="28" height="42" viewBox="0 0 28 42" fill="none" xmlns="http://www.w3.org/2000/svg">
<path fill-rule="evenodd" clip-rule="evenodd" d="M7.55885 0.634277C3.41788 0.634277 0.0875098 4.10849 0.0875098 8.36454C0.0875098 10.952 1.31948 13.2501 3.21312 14.653C2.23716 15.3842 1.44608 16.3339 0.903289 17.4259C0.360504 18.5179 0.0811115 19.722 0.0875098 20.9414C0.0875098 23.5306 1.31948 25.827 3.21312 27.2299C2.23716 27.9611 1.44608 28.9108 0.903289 30.0028C0.360504 31.0948 0.0811115 32.2989 0.0875098 33.5183C0.0875098 37.7744 3.41788 41.2486 7.55885 41.2486C11.6981 41.2486 15.0302 37.7744 15.0302 33.5183V26.9828C16.3389 28.074 17.9885 28.6721 19.6924 28.6734C23.8333 28.6717 27.1637 25.1975 27.1637 20.9414C27.1637 18.3523 25.9334 16.0559 24.0381 14.653C25.0141 13.9218 25.8052 12.9721 26.3479 11.8801C26.8907 10.788 27.1701 9.58401 27.1637 8.36454C27.1637 4.10849 23.8333 0.634277 19.6924 0.634277H7.55885ZM2.89497 8.36454C2.89497 5.67215 4.99676 3.5162 7.55885 3.5162H12.221V13.2129H7.55885C4.99676 13.2129 2.89497 11.0552 2.89497 8.36454ZM19.6924 13.2112H15.0302V3.51451H19.6924C22.2562 3.51451 24.3563 5.67215 24.3563 8.36454C24.3563 11.0552 22.2562 13.2112 19.6924 13.2112ZM2.89667 20.9414C2.89667 18.2507 4.99846 16.0931 7.56054 16.0931H12.2227V25.7898H7.55885C4.99507 25.7898 2.89497 23.6321 2.89497 20.9414H2.89667ZM15.0302 20.9414C15.0302 18.2507 17.132 16.0931 19.6941 16.0931C22.2578 16.0931 24.3579 18.249 24.3579 20.9414C24.3579 23.6321 22.2578 25.7898 19.6941 25.7898C17.132 25.7898 15.0319 23.6338 15.0319 20.9414H15.0302ZM2.89667 33.5183C2.89667 30.8276 4.99846 28.6717 7.56054 28.6717H12.2227V33.5183C12.2227 36.2107 10.1243 38.3667 7.56054 38.3667C4.99846 38.3667 2.89667 36.2107 2.89667 33.5183Z" fill="white"/>
</svg>
