<svg width="43" height="42" viewBox="0 0 43 42" fill="none" xmlns="http://www.w3.org/2000/svg">
<path fill-rule="evenodd" clip-rule="evenodd" d="M21.5654 0.146973C9.81503 0.146973 0.297729 9.66428 0.297729 21.4147C0.297729 30.8257 6.38561 38.7745 14.8395 41.5924C15.9029 41.7785 16.3017 41.1405 16.3017 40.5822C16.3017 40.0771 16.2751 38.4023 16.2751 36.6211C10.9316 37.6047 9.54919 35.3185 9.12383 34.1222C8.88457 33.5107 7.84777 31.6232 6.94389 31.1181C6.19952 30.7193 5.13614 29.7357 6.91731 29.7091C8.59214 29.6825 9.78845 31.251 10.1872 31.889C12.1013 35.1058 15.1585 34.2019 16.3814 33.6436C16.5675 32.2612 17.1258 31.3308 17.7373 30.7991C13.0052 30.2674 8.06045 28.433 8.06045 20.2981C8.06045 17.9853 8.88457 16.0712 10.2404 14.5824C10.0277 14.0507 9.28334 11.8708 10.4531 8.94649C10.4531 8.94649 12.2342 8.38821 16.3017 11.1264C18.0031 10.6479 19.8109 10.4086 21.6186 10.4086C23.4264 10.4086 25.2341 10.6479 26.9355 11.1264C31.003 8.36163 32.7842 8.94649 32.7842 8.94649C33.9539 11.8708 33.2095 14.0507 32.9968 14.5824C34.3527 16.0712 35.1768 17.9587 35.1768 20.2981C35.1768 28.4596 30.2055 30.2674 25.4734 30.7991C26.2443 31.4637 26.909 32.7397 26.909 34.7336C26.909 37.5782 26.8824 39.8644 26.8824 40.5822C26.8824 41.1405 27.2811 41.8051 28.3445 41.5924C32.5665 40.167 36.2352 37.4535 38.8342 33.8339C41.4333 30.2143 42.8319 25.8708 42.8332 21.4147C42.8332 9.66428 33.3159 0.146973 21.5654 0.146973Z" fill="white"/>
</svg>
