<svg width="39" height="52" viewBox="0 0 39 52" fill="none" xmlns="http://www.w3.org/2000/svg">
<path d="M4.87057 0.120361H7.12473V2.39199H9.18723V0.120361H11.4414V6.99686H9.18723V4.69549H7.12473V6.99686H4.87265V0.120361H4.87057Z" fill="white"/>
<path d="M14.4039 2.40049H12.4206V0.120361H18.6435V2.40049H16.6581V6.99686H14.4039V2.40049Z" fill="white"/>
<path d="M19.6309 0.120361H21.9809L23.4268 2.53649L24.8705 0.120361H27.2205V6.99686H24.9768V3.58836L23.4268 6.03424H23.3872L21.8351 3.59049V6.99686H19.6309V0.120361Z" fill="white"/>
<path d="M28.3412 0.120361H30.5974V4.72524H33.7641V6.99899H28.3412V0.120361Z" fill="white"/>
<path fill-rule="evenodd" clip-rule="evenodd" d="M4.79961 47.0233L0.537109 10.144H38.0371L33.7725 47.0191L19.2663 51.1203L4.79961 47.0233ZM13.4184 26.8358L13.0142 22.2033H29.9829L30.3788 17.6813H8.17044L9.36628 31.36H24.735L24.2204 37.225L19.2746 38.5892H19.2704L14.3329 37.2292L14.0163 33.6231H9.56211L10.1829 40.7248L19.2663 43.2961L28.3642 40.7248L29.4725 28.0513L29.5809 26.838H13.4184V26.8358Z" fill="white"/>
</svg>
