<svg width="43" height="43" viewBox="0 0 43 43" fill="none" xmlns="http://www.w3.org/2000/svg">
<path d="M39.128 32.022C38.4767 32.022 37.8051 31.7726 37.1131 31.2739C36.4212 30.7752 35.8446 30.1241 35.3832 29.3207C35.6275 29.3484 35.8174 29.3622 35.9531 29.3622C37.0385 29.3622 37.9611 29.099 38.7209 28.5726C39.4807 28.0462 39.8606 27.4229 39.8606 26.7025C39.8606 26.0099 39.5214 25.4142 38.843 24.9155C38.1646 24.4168 37.3234 24.1259 36.3194 24.0428C35.2069 24.8186 33.3142 25.4558 30.6413 25.9545C27.9685 26.4532 24.9632 26.7025 21.6255 26.7025C17.311 26.7025 13.6273 26.3077 10.5746 25.5181C7.5218 24.7285 5.99543 23.7935 5.99543 22.713C5.99543 21.8818 6.8909 21.1338 8.68185 20.4688C9.06175 21.4662 10.6085 22.3112 13.322 23.0039C16.0356 23.6965 19.2376 24.0428 22.928 24.0428C25.9943 24.0428 28.7486 23.7935 31.1908 23.2948C33.633 22.7961 35.3697 22.1589 36.4008 21.3831C36.7265 21.6325 36.9571 21.8818 37.0928 22.1312C37.7983 21.6325 38.4767 21.3831 39.128 21.3831C40.0506 21.3831 40.8375 21.9026 41.4887 22.9415C42.14 23.9805 42.4656 25.2342 42.4656 26.7025C42.4656 28.1709 42.14 29.4246 41.4887 30.4635C40.8375 31.5025 40.0506 32.022 39.128 32.022ZM24.2305 13.3624C24.2305 14.2767 24.3662 15.094 24.6376 15.8143C24.9089 16.5347 25.2074 17.1026 25.533 17.5182C25.8587 17.9338 26.1572 18.481 26.4285 19.1598C26.6999 19.8385 26.8355 20.5797 26.8355 21.3831C26.6999 21.3 26.5167 21.1892 26.286 21.0506C26.0554 20.9121 25.6348 20.5866 25.0242 20.074C24.4137 19.5615 23.8846 19.0212 23.4368 18.4533C22.9891 17.8853 22.5753 17.1442 22.1954 16.2299C21.8155 15.3156 21.6255 14.3598 21.6255 13.3624C21.6255 12.4481 22.0529 11.4854 22.9077 10.4741C23.7624 9.46289 24.7732 8.60403 25.9401 7.89754C27.1069 7.19105 28.2602 6.60232 29.3999 6.13132C30.5395 5.66033 31.4215 5.43869 32.0456 5.4664C31.5571 5.4664 30.6956 5.89583 29.4609 6.75469C28.2262 7.61356 27.0458 8.69407 25.9197 9.99622C24.7936 11.2984 24.2305 12.4204 24.2305 13.3624ZM16.4155 14.7338C16.4155 15.7035 16.6326 16.7425 17.0667 17.8507C17.5009 18.9589 17.9351 19.8316 18.3692 20.4688L19.0205 21.4247C17.718 21.4247 16.524 20.7182 15.4386 19.3052C14.3532 17.8922 13.8105 16.3684 13.8105 14.7338C13.8105 14.0135 14.0818 13.2862 14.6245 12.552C15.1673 11.8178 15.8185 11.1529 16.5783 10.5573C17.3381 9.96159 18.0979 9.40055 18.8577 8.87415C19.6175 8.34775 20.2687 7.82828 20.8114 7.31573C21.3542 6.80318 21.6255 6.35297 21.6255 5.96509C21.6255 5.18934 21.5848 4.51056 21.5034 3.92875C21.422 3.34694 21.1981 2.68201 20.8318 1.93397C20.4655 1.18592 19.9431 0.590258 19.2647 0.146973C20.9471 0.34091 22.1954 0.957354 23.0094 1.9963C23.8235 3.03525 24.2305 4.35818 24.2305 5.96509C24.2305 6.85166 23.9592 7.64127 23.4165 8.3339C22.8738 9.02653 22.2225 9.59449 21.4627 10.0378C20.7029 10.4811 19.9431 10.9105 19.1833 11.3261C18.4235 11.7417 17.7723 12.2334 17.2296 12.8014C16.6868 13.3693 16.4155 14.0135 16.4155 14.7338ZM21.6255 34.6817C25.6144 34.6817 28.6129 34.2384 30.621 33.3518C31.5707 33.7674 32.0456 34.2107 32.0456 34.6817C32.0456 35.402 31.028 36.0254 28.9928 36.5518C26.9577 37.0782 24.5019 37.3414 21.6255 37.3414C18.7491 37.3414 16.2934 37.0782 14.2582 36.5518C12.223 36.0254 11.2055 35.402 11.2055 34.6817C11.2055 34.2107 11.6803 33.7674 12.6301 33.3518C14.6381 34.2384 17.6366 34.6817 21.6255 34.6817ZM8.60044 29.3622C8.60044 28.8913 9.18386 28.448 10.3507 28.0324C12.8743 28.919 16.6326 29.3622 21.6255 29.3622C26.6185 29.3622 30.3767 28.919 32.9003 28.0324C34.0672 28.448 34.6506 28.8913 34.6506 29.3622C34.6506 30.0826 33.3752 30.706 30.8245 31.2324C28.2737 31.7588 25.2006 32.022 21.6052 32.022C18.0097 32.022 14.9434 31.7588 12.4062 31.2324C9.86903 30.706 8.60044 30.0826 8.60044 29.3622ZM5.99543 34.6817C5.99543 35.6514 6.69417 36.5449 8.09165 37.3622C9.48913 38.1795 11.3886 38.8236 13.7901 39.2946C16.1916 39.7656 18.8034 40.0011 21.6255 40.0011C24.4476 40.0011 27.0594 39.7656 29.4609 39.2946C31.8624 38.8236 33.7619 38.1795 35.1594 37.3622C36.5569 36.5449 37.2556 35.6514 37.2556 34.6817C37.2556 34.3769 37.1742 34.0722 37.0114 33.7674C40.6475 34.7648 42.4656 35.9561 42.4656 37.3414C42.4656 38.3111 41.5362 39.2046 39.6774 40.0219C37.8187 40.8392 35.2883 41.4833 32.0863 41.9543C28.8843 42.4253 25.3974 42.6608 21.6255 42.6608C17.8537 42.6608 14.3668 42.4253 11.1648 41.9543C7.96276 41.4833 5.43237 40.8392 3.57358 40.0219C1.71479 39.2046 0.7854 38.3111 0.7854 37.3414C0.7854 35.9561 2.60348 34.7648 6.23965 33.7674C6.07684 34.0722 5.99543 34.3769 5.99543 34.6817Z" fill="white"/>
</svg>
