<svg width="42" height="42" viewBox="0 0 42 42" fill="none" xmlns="http://www.w3.org/2000/svg">
<path fill-rule="evenodd" clip-rule="evenodd" d="M41.7568 41.2624H0.316162V0.634277H41.7568V41.2624ZM33.2105 17.8547V14.7037C32.6811 14.4726 29.6499 13.6225 27.2552 14.5184C23.8056 15.8088 23.9295 19.6962 25.2385 21.2219C26.9346 23.1987 31.1537 23.9357 30.4633 25.8761C30.1057 26.8808 28.4367 27.0557 26.9652 26.7184C25.595 26.4043 24.4035 25.6086 24.4035 25.6086V28.9449C24.4035 28.9449 25.5812 29.5886 27.0266 29.7418C28.8795 29.938 31.2021 29.5674 32.3657 28.5535C34.4369 26.7485 34.755 22.7499 30.8299 20.8932C27.5636 19.3482 27.6174 18.9072 27.6403 18.1147C27.671 17.0533 29.9441 16.4 33.2105 17.8547ZM15.5966 9.01183C18.3143 9.10452 22.3082 10.3325 22.3082 15.5687C22.3082 20.8048 17.4216 22.5231 12.9628 22.1487V29.5627H9.64111V9.08127C9.64111 9.08127 12.8788 8.91915 15.5966 9.01183ZM16.4592 18.905C17.8914 18.3926 18.8224 17.2912 18.8224 15.5802C18.8224 13.7661 17.875 12.5377 16.426 12.1907C14.857 11.8148 12.9628 12.0363 12.9628 12.0363V19.1815C12.9628 19.1815 15.5848 19.2178 16.4592 18.905Z" fill="white"/>
</svg>
