<svg width="42" height="34" viewBox="0 0 42 34" fill="none" xmlns="http://www.w3.org/2000/svg">
<path d="M21.6998 19.0694C21.7731 17.7225 22.4497 16.5333 23.4608 15.6934C24.5287 14.8272 25.8736 14.3575 27.2594 14.3666C28.7143 14.3666 30.0534 14.8724 31.0516 15.6934C32.064 16.5345 32.7329 17.7225 32.8127 19.0694C32.886 20.4478 32.3238 21.7367 31.3256 22.6876C30.2314 23.7123 28.7726 24.2783 27.2594 24.2653C25.7419 24.2792 24.2785 23.7133 23.1791 22.6876C22.1873 21.7355 21.6188 20.4478 21.6985 19.0694H21.6998ZM12.8496 21.7884C12.8548 22.3143 13.0297 23.3384 13.2831 24.1392C13.8383 25.8601 14.7714 27.4408 16.0167 28.7701C17.3504 30.2089 18.9777 31.357 20.7929 32.1399C22.7713 32.9923 24.9106 33.4268 27.0716 33.4149C29.2335 33.4213 31.3725 32.9808 33.3491 32.1222C35.1629 31.3306 36.7893 30.1784 38.1253 28.7386C39.3657 27.4015 40.296 25.8169 40.8524 24.0938C41.3884 22.4239 41.5348 20.6572 41.2808 18.9244C41.0413 17.2649 40.4473 15.6736 39.5377 14.2544C38.6995 12.9306 37.6234 11.7666 36.3617 10.8191L23.4724 1.10957C22.6286 0.472697 21.2084 0.479003 20.2835 1.10957C19.3458 1.75401 19.2377 2.81841 20.0674 3.49438L25.429 7.7709L9.06131 7.79108C7.70678 7.79108 6.41527 8.65748 6.15285 9.76223C5.89172 10.8783 6.80247 11.8053 8.20974 11.8103L16.4978 11.799L1.65188 22.9638C0.258753 24.008 -0.190187 25.7547 0.688397 26.8532C1.57856 27.9768 3.47594 27.9768 4.88836 26.8595L12.9551 20.3886C12.9551 20.3886 12.8355 21.2625 12.8484 21.7872L12.8496 21.7884ZM33.5832 24.7105C31.9161 26.3739 29.5903 27.3185 27.0729 27.3185C24.5529 27.3248 22.2208 26.3916 20.5601 24.737C19.7747 23.9616 19.1688 23.0295 18.7836 22.0041C18.4312 21.0404 18.292 20.0142 18.3754 18.9938C18.4588 17.9733 18.7629 16.9819 19.2673 16.0856C19.7709 15.2013 20.4414 14.4189 21.2431 13.7802C22.8588 12.4939 24.9157 11.7977 27.0729 11.7914C29.2224 11.7914 31.2806 12.4812 32.8937 13.7676C33.6991 14.4007 34.3703 15.1821 34.8696 16.0679C35.3725 16.9469 35.6812 17.9256 35.7687 18.9383C35.8621 19.9689 35.7228 21.007 35.3609 21.9789C34.9732 23.003 34.3676 23.9346 33.5845 24.7118L33.5832 24.7105Z" fill="white"/>
</svg>
