<svg width="39" height="52" viewBox="0 0 39 52" fill="none" xmlns="http://www.w3.org/2000/svg">
<path d="M10.0071 0.120361H15.4853V2.41111H12.2978V4.70186H15.4853V6.99261H10.0071V0.120361Z" fill="white"/>
<path d="M16.5798 0.120361H22.0602V2.11361H18.8727V2.51099H22.0602V7.09249H16.5798V5.00149H19.7673V4.60199H16.5798V0.120361Z" fill="white"/>
<path d="M23.1566 0.120361H28.6327V2.11361H25.4452V2.51099H28.6327V7.09249H23.1566V5.00149H26.3441V4.60199H23.1566V0.120361Z" fill="white"/>
<path fill-rule="evenodd" clip-rule="evenodd" d="M19.5463 51.1203L4.7903 47.0233L0.44043 10.144H38.6904L34.3427 47.0191L19.5463 51.1203ZM9.0403 26.838L9.44618 31.36H25.1223L24.5974 37.225L19.5527 38.5892H19.5484L14.5122 37.2292L14.1892 33.6231H9.64806L10.2813 40.7248L19.5463 43.2961L28.8262 40.7248L29.9567 28.0513L30.0672 26.838L30.8832 17.6813H8.22643L8.63868 22.2055H25.9277L25.5154 26.838H9.0403Z" fill="white"/>
</svg>
