<svg width="42" height="42" viewBox="0 0 42 42" fill="none" xmlns="http://www.w3.org/2000/svg">
<path fill-rule="evenodd" clip-rule="evenodd" d="M41.5364 20.6204C41.5364 31.9422 32.3582 41.1204 21.0364 41.1204C9.71454 41.1204 0.536377 31.9422 0.536377 20.6204C0.536377 9.29853 9.71454 0.120361 21.0364 0.120361C32.3582 0.120361 41.5364 9.29853 41.5364 20.6204ZM26.9404 17.7835L29.2234 20.0664L31.9631 9.10774L21.0044 11.8475L23.2223 14.0653L28.1146 12.9564L26.9404 17.7835ZM16.8297 12.891L5.87089 15.6309L25.4402 35.2L28.1797 24.2412L25.8968 21.958L23.9399 29.7857L19.5042 25.3499L20.8087 20.262L15.6555 21.5014L11.2198 17.0657L19.0476 15.1088L16.8297 12.891Z" fill="white"/>
</svg>
