<svg width="32" height="44" viewBox="0 0 32 44" fill="none" xmlns="http://www.w3.org/2000/svg">
<path d="M1.48345 28.3984L5.67183 1.44912C5.70257 1.24954 5.7953 1.06469 5.93689 0.920711C6.07848 0.776737 6.26176 0.680934 6.4608 0.646861C6.65984 0.612787 6.86455 0.642168 7.04597 0.730846C7.22738 0.819524 7.37632 0.963009 7.4717 1.14099L11.9767 9.59637L1.48345 28.3984ZM31.2356 34.937L27.247 10.1361C27.2169 9.96255 27.14 9.80051 27.0244 9.66758C26.9088 9.53464 26.759 9.43589 26.5913 9.38203C26.4236 9.32817 26.2443 9.32125 26.073 9.36204C25.9016 9.40282 25.7447 9.48974 25.6192 9.61337L0.465576 34.937L14.3843 42.7804C15.2577 43.2691 16.3223 43.2691 17.1957 42.7804L31.2356 34.937ZM19.9242 13.2939L16.7006 7.12499C16.6191 6.97014 16.4968 6.84048 16.347 6.75003C16.1972 6.65958 16.0256 6.61178 15.8506 6.61178C15.6756 6.61178 15.5039 6.65958 15.3541 6.75003C15.2043 6.84048 15.0821 6.97014 15.0006 7.12499L0.845951 32.4911L19.9242 13.2939Z" fill="white"/>
</svg>
