<svg width="42" height="43" viewBox="0 0 42 43" fill="none" xmlns="http://www.w3.org/2000/svg">
<path fill-rule="evenodd" clip-rule="evenodd" d="M0.963867 0.620361H41.9639V42.6204H0.963867V0.620361ZM32.3067 35.8304C30.4053 35.8304 29.3307 34.8154 28.5056 33.4329L25.3742 35.2966C26.5052 37.5856 28.8165 39.3321 32.3955 39.3321C36.0547 39.3321 38.7795 37.3861 38.7795 33.8319C38.7795 30.5366 36.9311 29.0719 33.658 27.6316L32.6945 27.2099C31.0408 26.4749 30.325 25.9971 30.325 24.8124C30.325 23.8551 31.0425 23.1219 32.17 23.1219C33.2753 23.1219 33.9877 23.5996 34.6488 24.8124L37.6486 22.8401C36.3793 20.5529 34.6197 19.6796 32.17 19.6796C28.7294 19.6796 26.5274 21.9336 26.5274 24.8946C26.5274 28.1059 28.3724 29.6266 31.1535 30.8394L32.117 31.2629C33.8749 32.0504 34.9221 32.5299 34.9221 33.8826C34.9221 35.0131 33.9022 35.8304 32.3067 35.8304ZM17.3758 35.8041C16.0519 35.8041 15.5001 34.8766 14.8953 33.7741L11.7588 35.7201C12.6677 37.6906 14.4546 39.3251 17.5381 39.3251C20.9531 39.3251 23.2918 37.4649 23.2918 33.3786V19.9036H19.4395V33.3261C19.4395 35.2984 18.64 35.8041 17.3741 35.8041H17.3758Z" fill="white"/>
</svg>
