<svg width="43" height="39" viewBox="0 0 43 39" fill="none" xmlns="http://www.w3.org/2000/svg">
<path d="M42.8591 19.6248C42.8591 16.837 39.3683 14.1948 34.0155 12.5573C35.2516 7.10281 34.7028 2.76168 32.2833 1.37132C31.697 1.04297 31.0335 0.877691 30.3617 0.892678V2.80376C30.7562 2.80376 31.0735 2.88265 31.34 3.02818C32.5059 3.69793 33.0126 6.2437 32.6181 9.52058C32.5235 10.3271 32.3692 11.1757 32.1798 12.0418C30.3873 11.6099 28.5681 11.2977 26.7341 11.1073C25.6416 9.59999 24.4496 8.16729 23.1662 6.81877C25.9627 4.22041 28.5873 2.79674 30.3722 2.79674V0.883911C28.0123 0.883911 24.9247 2.56531 21.8021 5.48102C18.6813 2.5846 15.592 0.918977 13.2338 0.918977V2.83006C15.0099 2.83006 17.6434 4.24671 20.4398 6.82754C19.2388 8.0899 18.0378 9.52058 16.8965 11.1073C15.0587 11.2956 13.2362 11.6107 11.442 12.0506C11.2439 11.1932 11.0983 10.3622 10.9949 9.56442C10.5916 6.28578 11.0896 3.74001 12.2485 3.06324C12.5045 2.90895 12.8394 2.83882 13.2338 2.83882V0.927743C12.515 0.927743 11.861 1.08203 11.2965 1.40639C8.8857 2.79674 8.34569 7.12735 9.58877 12.566C4.25353 14.2141 0.780273 16.8458 0.780273 19.6248C0.780273 22.4125 4.27106 25.0547 9.62383 26.6905C8.38777 32.1467 8.93655 36.4878 11.3561 37.8764C11.9136 38.2025 12.5658 38.3568 13.2847 38.3568C15.6446 38.3568 18.7321 36.6754 21.8547 33.7597C24.9756 36.6579 28.0631 38.3218 30.423 38.3218C31.1 38.3361 31.7686 38.1703 32.3604 37.8414C34.7712 36.4528 35.3112 32.1222 34.0681 26.6835C39.3858 25.0459 42.8591 22.4037 42.8591 19.6248ZM31.6907 13.9038C31.3575 15.0502 30.9714 16.1805 30.5335 17.2911C29.8167 15.8968 29.0296 14.5398 28.1753 13.2253C29.3939 13.4059 30.5686 13.6285 31.6924 13.9038H31.6907ZM27.7633 23.0384C27.0953 24.1956 26.408 25.2949 25.6962 26.3153C23.1228 26.5421 20.5346 26.545 17.9607 26.324C16.4843 24.2152 15.1932 21.9825 14.1017 19.6511C15.1915 17.3141 16.4772 15.0736 17.9449 12.9535C20.5177 12.7262 23.1053 12.7227 25.6786 12.943C26.3905 13.9634 27.0865 15.0539 27.7545 16.2041C28.4068 17.3262 28.9994 18.4658 29.5394 19.616C28.9934 20.7801 28.4009 21.9218 27.7633 23.0384ZM30.5335 21.9233C30.9964 23.0717 31.3926 24.2219 31.717 25.3369C30.5949 25.6122 29.4096 25.8436 28.1841 26.0225C29.0349 24.696 29.819 23.3279 30.5335 21.9233ZM21.8372 31.0754C21.0395 30.2514 20.2417 29.3344 19.4527 28.3298C20.2242 28.3649 21.0132 28.3912 21.8109 28.3912C22.6174 28.3912 23.4152 28.3736 24.1954 28.3298C23.4239 29.3344 22.6262 30.2514 21.8372 31.0754ZM15.4553 26.0225C14.2731 25.8512 13.0995 25.6254 11.9382 25.3457C12.2555 24.2394 12.65 23.098 13.0953 21.9584C13.4477 22.6422 13.8177 23.3294 14.2209 24.0167C14.6242 24.7023 15.0345 25.372 15.4553 26.0225ZM21.7934 8.17406C22.5911 8.99811 23.3889 9.91507 24.1778 10.9197C23.4064 10.8846 22.6174 10.8583 21.8197 10.8583C21.0132 10.8583 20.2154 10.8759 19.4352 10.9197C20.2067 9.91507 21.0044 8.99811 21.7934 8.17406ZM15.4465 13.227C14.5959 14.5506 13.8118 15.9158 13.0971 17.3174C12.6469 16.1996 12.2519 15.0604 11.9136 13.9038C13.0357 13.6373 14.2209 13.4059 15.4465 13.227ZM7.6847 23.9641C4.64802 22.6702 2.68434 20.9713 2.68434 19.6248C2.68434 18.2782 4.64802 16.5705 7.6847 15.2854C8.42108 14.968 9.22759 14.684 10.0604 14.4193C10.5496 16.0989 11.193 17.8487 11.989 19.6423C11.2375 21.3293 10.6019 23.0655 10.0867 24.839C9.27221 24.5868 8.47059 24.2948 7.6847 23.9641ZM12.2993 36.2196C11.1334 35.5533 10.6267 33.0041 11.0212 29.7289C11.1159 28.9224 11.2702 28.0721 11.4595 27.206C13.1392 27.618 14.9749 27.9353 16.9052 28.1422C17.9978 29.6495 19.1898 31.0822 20.4731 32.4307C17.6767 35.0291 15.052 36.4528 13.2672 36.4528C12.9304 36.4564 12.598 36.3769 12.2993 36.2213V36.2196ZM32.6444 29.6851C33.0477 32.962 32.5498 35.5095 31.3908 36.1863C31.1349 36.3406 30.8 36.4089 30.4055 36.4089C28.6294 36.4089 25.996 34.994 23.1995 32.4114C24.4005 31.1526 25.6015 29.7202 26.7429 28.1334C28.5806 27.9452 30.4031 27.63 32.1974 27.1902C32.3955 28.0563 32.548 28.8873 32.6444 29.6851ZM35.9459 23.9641C35.2095 24.2815 34.403 24.5655 33.5702 24.8303C33.0459 23.0477 32.4016 21.3027 31.6416 19.6072C32.4305 17.8241 33.0635 16.0831 33.5439 14.4105C34.3942 14.6752 35.199 14.968 35.9546 15.2854C38.9913 16.5793 40.955 18.2782 40.955 19.6248C40.9462 20.9713 38.9826 22.679 35.9459 23.9641Z" fill="white"/>
<path d="M21.811 23.5451C22.8507 23.5451 23.8479 23.1321 24.5831 22.3969C25.3183 21.6617 25.7313 20.6645 25.7313 19.6248C25.7313 18.585 25.3183 17.5879 24.5831 16.8527C23.8479 16.1175 22.8507 15.7044 21.811 15.7044C20.7712 15.7044 19.7741 16.1175 19.0389 16.8527C18.3037 17.5879 17.8906 18.585 17.8906 19.6248C17.8906 20.6645 18.3037 21.6617 19.0389 22.3969C19.7741 23.1321 20.7712 23.5451 21.811 23.5451Z" fill="white"/>
</svg>
