<svg width="43" height="43" viewBox="0 0 43 43" fill="none" xmlns="http://www.w3.org/2000/svg">
<path d="M21.8239 0.146973C33.2859 0.146973 42.664 9.71258 42.664 21.4039C42.664 33.0952 33.2859 42.6608 21.8239 42.6608C10.3618 42.6608 0.983765 33.0952 0.983765 21.4039C0.983765 9.71258 10.3618 0.146973 21.8239 0.146973ZM17.6558 28.4452C17.9164 29.6409 17.9164 30.7038 17.6558 31.6338L17.5256 32.0323C17.5256 32.1652 17.3953 32.298 17.3953 32.298C17.1348 32.8295 16.8743 33.228 16.4836 33.7595C15.3113 35.088 13.6181 35.6194 12.8366 35.2209C12.0551 34.8223 12.4458 32.8295 13.8786 31.3681C15.4416 29.7738 17.5256 28.7109 17.5256 28.7109L17.6558 28.4452ZM34.8489 9.18116C33.9372 5.4612 27.8154 4.13264 21.9541 6.25833C18.5676 7.58689 14.7903 9.57973 12.0551 12.104C8.7988 15.1597 8.40805 17.8168 8.5383 18.8796C9.31981 22.7324 14.5298 25.3896 16.7441 27.2495C16.0928 27.5152 11.4038 29.9066 10.3618 32.4309C9.18956 35.088 10.4921 36.948 11.4038 37.0809C14.1391 37.878 17.0046 36.4166 18.4374 34.158C19.8701 31.8995 19.7399 29.1095 19.0886 27.6481C20.1018 27.3289 21.1789 27.2832 22.2146 27.5152C25.8616 27.9138 26.6431 30.3052 26.3826 31.2352C26.1221 32.1652 25.4709 32.6966 25.2104 32.9623C24.9499 33.0952 24.8196 33.228 24.9499 33.228C24.9499 33.3609 25.0801 33.3609 25.3406 33.3609C25.6011 33.3609 27.2944 32.5638 27.2944 30.7038C27.4246 28.4452 25.2104 25.921 21.4331 25.921C19.8701 25.921 18.8281 26.0538 18.1769 26.3195C18.1769 26.1867 18.0466 26.1867 18.0466 26.1867C15.7021 23.6624 11.4038 21.8024 11.5341 18.3482C11.5341 17.1525 12.0551 13.8311 19.8701 9.84544C26.2524 6.52405 31.4624 7.45404 32.3742 9.44687C33.6767 12.2368 29.6389 17.5511 22.9961 18.3482C20.3911 18.6139 19.0886 17.6839 18.8281 17.2854C18.4374 16.8868 18.4374 16.8868 18.3071 16.8868C18.0466 17.0196 18.1769 17.2854 18.3071 17.5511C18.5676 18.0825 19.3491 19.0125 20.7819 19.5439C21.9541 19.9425 24.9499 20.2082 28.5969 18.7468C32.6347 17.1525 35.7607 12.7683 34.8489 9.0483V9.18116Z" fill="white"/>
</svg>
