<svg width="47" height="46" viewBox="0 0 47 46" fill="none" xmlns="http://www.w3.org/2000/svg">
<path d="M23.384 0.63309C14.3511 0.617746 5.84898 5.84447 1.94709 14.1178L12.9185 14.1432V15.3141C9.54013 14.9174 9.83761 16.6293 10.3159 18.4463L17.5181 36.0601L22.8117 23.9513L20.3816 18.2766C19.4988 16.7567 19.4802 15.0705 15.8689 15.2293L15.9197 14.1503L32.0108 14.1885V15.3976C30.1264 15.5054 27.8579 14.9353 29.0604 18.7009L35.5685 35.3828L39.1261 25.644C40.2911 21.5615 39.1947 17.6383 37.8103 13.7911C37.0403 11.2102 37.3994 9.05485 40.8506 8.19983C35.5828 2.95277 29.3669 0.64326 23.384 0.63309ZM45.2688 16.0339L34.8365 42.569C37.7175 40.1342 40.6715 39.2479 44.2863 32.5107C46.6913 26.9069 46.4437 21.7157 45.2688 16.0339ZM0.842849 16.4637C-0.175394 24.2973 -0.0822434 26.5917 2.43835 32.9887C5.72397 39.1154 8.27185 40.4063 11.8881 42.8095L0.842849 16.4637ZM23.7913 26.4033L16.0602 44.6053C21.4869 46.1168 26.3426 45.9276 30.7877 44.2461L23.7913 26.4033Z" fill="white"/>
</svg>
